# xmcd
#
# Track frame offsets: 
#        182
#        12932
#        25742
#        39675
#        53317
#        64725
#        77892
#        88387
#        100935
#        116045
#        127722
#        139480
#        151147
#        162052
#        174112
#        184415
#        197367
#        207867
#
# Disc length: 3003 seconds
#
# Revision: 9
# Processed by: cddbd v1.5.2PL0 Copyright (c) Steve Scherf et al.
# Submitted via: ExactAudioCopyFreeDBPlugin 1.0
#
DISCID=e40bb912
DTITLE=Ray Charles - The Birth Of Soul Vol. 2
DYEAR=1991
DGENRE=Soul
TTITLE0=I Got A Woman
TTITLE1=Greenbacks
TTITLE2=Come Back Baby
TTITLE3=A Fool For You
TTITLE4=This Little Girl Of Mine
TTITLE5=Hard Times
TTITLE6=A Bit Of Soul
TTITLE7=Mary Ann
TTITLE8=Drown In My Own Tears
TTITLE9=Hallelujah I Love Her So
TTITLE10=What Would I Do Without You
TTITLE11=Lonely Avenue
TTITLE12=I Want To Know
TTITLE13=Leave My Woman Alone
TTITLE14=It's Alright
TTITLE15=Ain't That Love
TTITLE16=Get On The Right Track
TTITLE17=Rockhouse Parts 1 And 2
EXTD=YEAR: 1991
EXTT0=
EXTT1=
EXTT2=
EXTT3=
EXTT4=
EXTT5=
EXTT6=
EXTT7=
EXTT8=
EXTT9=
EXTT10=
EXTT11=
EXTT12=
EXTT13=
EXTT14=
EXTT15=
EXTT16=
EXTT17=
PLAYORDER=
